<?xml version="1.0" encoding="utf-8"?>
<!-- Generator: Adobe Illustrator 25.3.1, SVG Export Plug-In . SVG Version: 6.00 Build 0)  -->
<svg version="1.1" xmlns="http://www.w3.org/2000/svg" xmlns:xlink="http://www.w3.org/1999/xlink" x="0px" y="0px"
	 viewBox="0 0 1005 713.6" style="enable-background:new 0 0 1005 713.6;" xml:space="preserve">
<style type="text/css">
	.st0{fill:none;stroke:#CCCCCC;}
	.st1{font-family:'ArialMT';}
	.st2{font-size:14px;}
	.st3{fill:#70020E;}
	.st4{fill:#B51319;}
	.st5{fill:#FB8162;}
	.st6{fill:#FC9172;}
	.st7{fill:#67000D;}
	.st8{fill:#E23028;}
	.st9{fill:#FCA083;}
	.st10{fill:#FCB59A;}
	.st11{fill:#78040F;}
	.st12{fill:#DA2824;}
	.st13{fill:#FCAB8F;}
	.st14{fill:#C2181C;}
	.st15{fill:#F75F44;}
	.st16{fill:#FEE4D8;}
	.st17{fill:#FFF5F0;}
	.st18{font-size:10px;}
	.st19{font-family:'Arial-BoldMT';}
	.st20{font-size:12px;}
	.st21{fill:#FFF4EF;}
	.st22{fill:#FFF3ED;}
	.st23{fill:#FFF2EC;}
	.st24{fill:#FFF1EB;}
	.st25{fill:#FFF1EA;}
	.st26{fill:#FFF0E8;}
	.st27{fill:#FFEFE7;}
	.st28{fill:#FFEEE6;}
	.st29{fill:#FFEDE4;}
	.st30{fill:#FFECE3;}
	.st31{fill:#FFEBE2;}
	.st32{fill:#FEEAE0;}
	.st33{fill:#FEE9DF;}
	.st34{fill:#FEE8DE;}
	.st35{fill:#FEE7DC;}
	.st36{fill:#FEE6DB;}
	.st37{fill:#FEE5D9;}
	.st38{fill:#FEE3D6;}
	.st39{fill:#FEE2D5;}
	.st40{fill:#FEE0D3;}
	.st41{fill:#FEDFD2;}
	.st42{fill:#FEDED0;}
	.st43{fill:#FEDDCE;}
	.st44{fill:#FEDCCD;}
	.st45{fill:#FEDACB;}
	.st46{fill:#FED9C9;}
	.st47{fill:#FED8C7;}
	.st48{fill:#FDD6C5;}
	.st49{fill:#FDD5C4;}
	.st50{fill:#FDD4C2;}
	.st51{fill:#FDD2C0;}
	.st52{fill:#FDD1BE;}
	.st53{fill:#FDCFBC;}
	.st54{fill:#FDCEBA;}
	.st55{fill:#FDCCB8;}
	.st56{fill:#FDCBB6;}
	.st57{fill:#FDC9B4;}
	.st58{fill:#FDC8B2;}
	.st59{fill:#FDC6B0;}
	.st60{fill:#FDC4AE;}
	.st61{fill:#FDC3AC;}
	.st62{fill:#FDC1AA;}
	.st63{fill:#FCC0A8;}
	.st64{fill:#FCBEA6;}
	.st65{fill:#FCBCA4;}
	.st66{fill:#FCBBA2;}
	.st67{fill:#FCB9A0;}
	.st68{fill:#FCB79E;}
	.st69{fill:#FCB69C;}
	.st70{fill:#FCB49A;}
	.st71{fill:#FCB298;}
	.st72{fill:#FCB196;}
	.st73{fill:#FCAF94;}
	.st74{fill:#FCAD92;}
	.st75{fill:#FCAC90;}
	.st76{fill:#FCAA8E;}
	.st77{fill:#FCA88C;}
	.st78{fill:#FCA78A;}
	.st79{fill:#FCA588;}
	.st80{fill:#FCA386;}
	.st81{fill:#FCA184;}
	.st82{fill:#FCA082;}
	.st83{fill:#FC9E80;}
	.st84{fill:#FC9C7E;}
	.st85{fill:#FC9B7C;}
	.st86{fill:#FC997A;}
	.st87{fill:#FC9779;}
	.st88{fill:#FC9577;}
	.st89{fill:#FC9475;}
	.st90{fill:#FC9273;}
	.st91{fill:#FC9071;}
	.st92{fill:#FC8F6F;}
	.st93{fill:#FC8D6D;}
	.st94{fill:#FC8B6C;}
	.st95{fill:#FC896A;}
	.st96{fill:#FC8868;}
	.st97{fill:#FC8666;}
	.st98{fill:#FC8465;}
	.st99{fill:#FB8363;}
	.st100{fill:#FB8161;}
	.st101{fill:#FB7F60;}
	.st102{fill:#FB7D5E;}
	.st103{fill:#FB7C5C;}
	.st104{fill:#FB7A5B;}
	.st105{fill:#FB7859;}
	.st106{fill:#FB7657;}
	.st107{fill:#FB7556;}
	.st108{fill:#FA7354;}
	.st109{fill:#FA7153;}
	.st110{fill:#FA6F51;}
	.st111{fill:#FA6D4F;}
	.st112{fill:#FA6C4E;}
	.st113{fill:#F96A4C;}
	.st114{fill:#F9684B;}
	.st115{fill:#F96649;}
	.st116{fill:#F86448;}
	.st117{fill:#F86247;}
	.st118{fill:#F86045;}
	.st119{fill:#F75D42;}
	.st120{fill:#F65B41;}
	.st121{fill:#F65940;}
	.st122{fill:#F6573E;}
	.st123{fill:#F5553D;}
	.st124{fill:#F4533C;}
	.st125{fill:#F4513B;}
	.st126{fill:#F34F39;}
	.st127{fill:#F34E38;}
	.st128{fill:#F24C37;}
	.st129{fill:#F14A36;}
	.st130{fill:#F04835;}
	.st131{fill:#F04634;}
	.st132{fill:#EF4433;}
	.st133{fill:#EE4332;}
	.st134{fill:#ED4131;}
	.st135{fill:#EC3F30;}
	.st136{fill:#EB3D2F;}
	.st137{fill:#EA3B2E;}
	.st138{fill:#E93A2D;}
	.st139{fill:#E8382C;}
	.st140{fill:#E7362B;}
	.st141{fill:#E6352A;}
	.st142{fill:#E43329;}
	.st143{fill:#E33229;}
	.st144{fill:#E02F27;}
	.st145{fill:#DF2D26;}
	.st146{fill:#DE2C26;}
	.st147{fill:#DC2A25;}
	.st148{fill:#DB2924;}
	.st149{fill:#DA2724;}
	.st150{fill:#D82623;}
	.st151{fill:#D72522;}
	.st152{fill:#D52422;}
	.st153{fill:#D42221;}
	.st154{fill:#D22121;}
	.st155{fill:#D02020;}
	.st156{fill:#CF1F20;}
	.st157{fill:#CD1E1F;}
	.st158{fill:#CC1D1F;}
	.st159{fill:#CA1C1E;}
	.st160{fill:#C91B1E;}
	.st161{fill:#C71A1D;}
	.st162{fill:#C61A1D;}
	.st163{fill:#C4191C;}
	.st164{fill:#C1171B;}
	.st165{fill:#BF171B;}
	.st166{fill:#BD161B;}
	.st167{fill:#BC151A;}
	.st168{fill:#BA151A;}
	.st169{fill:#B81419;}
	.st170{fill:#B71419;}
	.st171{fill:#B31318;}
	.st172{fill:#B11218;}
	.st173{fill:#B01218;}
	.st174{fill:#AE1117;}
	.st175{fill:#AC1117;}
	.st176{fill:#AA1016;}
	.st177{fill:#A81016;}
	.st178{fill:#A60F16;}
	.st179{fill:#A40F15;}
	.st180{fill:#A20E15;}
	.st181{fill:#A00E15;}
	.st182{fill:#9E0D14;}
	.st183{fill:#9B0D14;}
	.st184{fill:#990C14;}
	.st185{fill:#970C13;}
	.st186{fill:#940B13;}
	.st187{fill:#920A13;}
	.st188{fill:#900A12;}
	.st189{fill:#8D0912;}
	.st190{fill:#8B0912;}
	.st191{fill:#880811;}
	.st192{fill:#860711;}
	.st193{fill:#830711;}
	.st194{fill:#810610;}
	.st195{fill:#7E0610;}
	.st196{fill:#7C0510;}
	.st197{fill:#79040F;}
	.st198{fill:#77040F;}
	.st199{fill:#74030F;}
	.st200{fill:#71030E;}
	.st201{fill:#6F020E;}
	.st202{fill:#6C010E;}
	.st203{fill:#6A010D;}
	.st204{font-family:'Georgia-Bold';}
	.st205{font-size:28px;}
</style>
<g id="Layer_1">
	<g transform="translate(383.5,281)">
		<path id="p_944.5" class="st0" d="M20,413.6c-154.6,0-280-125.4-280-280s125.4-280,280-280s280,125.4,280,280
			S174.6,413.6,20,413.6z"/>
	</g>
	<path id="p_651.417938847587" class="st0" d="M294.3,510.7c-58,0-105.1-47-105.1-105.1s47-105.1,105.1-105.1s105.1,47,105.1,105.1
		S352.3,510.7,294.3,510.7z"/>
	<path id="p_860.4096132406696" class="st0" d="M506.5,507.5c-56.3,0-101.9-45.6-101.9-101.9s45.6-101.9,101.9-101.9
		s101.9,45.6,101.9,101.9S562.8,507.5,506.5,507.5z"/>
	<path id="p_939.340743033364" class="st0" d="M403.6,689.4c-56.3,0-101.9-45.6-101.9-101.9c0-56.3,45.6-101.9,101.9-101.9
		s101.9,45.6,101.9,101.9C505.4,643.8,459.8,689.4,403.6,689.4z"/>
	<text transform="matrix(1 0 0 1 363.6323 484.2291)" class="st1 st2">Addict -- SUD</text>
	<path id="p_576.8451499906027" class="st0" d="M403.4,327c-51.7,0-93.6-41.9-93.6-93.6s41.9-93.6,93.6-93.6c0,0,0,0,0,0
		c51.7,0,93.6,41.9,93.6,93.6S455.2,327,403.4,327C403.5,327,403.4,327,403.4,327z"/>
	<text transform="matrix(1 0 0 1 372.6656 137.6181)" class="st1 st2">SA -- SUD</text>
	<g id="NW__x2B__Bad" transform="translate(230.86401739121814,271.41645364384806)">
		<path id="p_542.3815668744637" class="st3" d="M20,173.7c-22.1,0-40.1-17.9-40.1-40.1S-2.2,93.5,20,93.5c0,0,0,0,0,0
			c22.1,0,40.1,17.9,40.1,40.1S42.2,173.7,20,173.7C20,173.7,20,173.7,20,173.7z"/>
	</g>
	<g id="PW__x2B__Bad" transform="translate(314.63186769520587,271.41645364384806)">
		<path id="p_624.4949577569865" class="st4" d="M20,172c-21.2,0-38.4-17.2-38.4-38.4S-1.2,95.1,20,95.1s38.4,17.2,38.4,38.4
			S41.2,172,20,172z"/>
	</g>
	<g id="PW__x2B__Good" transform="translate(274.2992821766365,337.8514149886075)">
		<path id="p_646.2034482542302" class="st5" d="M20,167.6c-18.8,0-34.1-15.2-34.1-34.1S1.2,99.5,20,99.5s34.1,15.2,34.1,34.1
			S38.8,167.6,20,167.6z"/>
	</g>
	<g id="NW__x2B__Good" transform="translate(274.2879778442433,205.65891985343313)">
		<path id="p_513.4272928790982" class="st6" d="M20,167.1c-18.5,0-33.5-15-33.5-33.5s15-33.5,33.5-33.5s33.5,15,33.5,33.5
			S38.5,167.1,20,167.1z"/>
	</g>
	<g id="NW__x2B__Bad_1_" transform="translate(442.0864568205022,271.1896408999909)">
		<path id="p_753.5678561757879" class="st7" d="M20,173.9c-22.3,0-40.3-18-40.3-40.3c0-22.3,18-40.3,40.3-40.3c0,0,0,0,0,0
			c22.3,0,40.3,18,40.3,40.3C60.3,155.8,42.3,173.9,20,173.9C20,173.9,20,173.9,20,173.9z"/>
	</g>
	<g id="PW__x2B__Bad_1_" transform="translate(524.3885665889346,271.1896408999909)">
		<path id="p_832.3684407554053" class="st8" d="M20,170.4c-20.3,0-36.8-16.5-36.8-36.8S-0.3,96.8,20,96.8s36.8,16.5,36.8,36.8
			S40.3,170.4,20,170.4z"/>
	</g>
	<g id="PW__x2B__Good_1_" transform="translate(486.49896040567484,335.8089203548632)">
		<path id="p_855.205963778852" class="st9" d="M20,166.5c-18.2,0-32.9-14.7-32.9-32.9S1.8,100.7,20,100.7s32.9,14.7,32.9,32.9
			S38.2,166.5,20,166.5z"/>
	</g>
	<g id="NW__x2B__Good_1_" transform="translate(486.4658177700353,207.49476450283163)">
		<path id="p_726.0796593753778" class="st10" d="M20,165.7c-17.7,0-32.1-14.4-32.1-32.1S2.3,101.5,20,101.5s32.1,14.4,32.1,32.1
			S37.7,165.7,20,165.7z"/>
	</g>
	<g id="NW__x2B__Bad_2_" transform="translate(339.7975803780701,453.912308358887)">
		<path id="p_833.6611356559455" class="st11" d="M20,173.5c-22.1,0-40-17.9-40-40s17.9-40,40-40s40,17.9,40,40S42.1,173.5,20,173.5
			z"/>
	</g>
	<g id="PW__x2B__Bad_2_" transform="translate(422.101756171654,453.912308358887)">
		<path id="p_913.146875358479" class="st12" d="M20,170.7c-20.5,0-37.1-16.6-37.1-37.1S-0.5,96.5,20,96.5s37.1,16.6,37.1,37.1
			S40.5,170.7,20,170.7z"/>
	</g>
	<g id="NW__x2B__Good_2_" transform="translate(383.56087179462975,518.0693449429615)">
		<path id="p_934.1206249867065" class="st13" d="M20,166.1c-17.9,0-32.5-14.5-32.5-32.5S2.1,101.1,20,101.1s32.5,14.5,32.5,32.5
			S37.9,166.1,20,166.1z"/>
	</g>
	<g id="PW__x2B__Good_2_" transform="translate(383.56087179462975,389.7552717748125)">
		<path id="p_805.8065518185575" class="st13" d="M20,166.1c-17.9,0-32.5-14.5-32.5-32.5S2.1,101.1,20,101.1s32.5,14.5,32.5,32.5
			S37.9,166.1,20,166.1z"/>
	</g>
	<g id="NW__x2B__Bad_3_" transform="translate(341.6741591652271,98.37144066720352)">
		<path id="p_478.06518340718463" class="st14" d="M20,171.6c-21,0-38-17-38-38s17-38,38-38s38,17,38,38S41,171.6,20,171.6z"/>
	</g>
	<g id="PW__x2B__Bad_3_" transform="translate(420.140192314203,98.37144066720352)">
		<path id="p_553.7379645089708" class="st15" d="M20,168.8c-19.5,0-35.2-15.8-35.2-35.2S0.5,98.4,20,98.4s35.2,15.8,35.2,35.2
			S39.5,168.8,20,168.8z"/>
	</g>
	<g id="PW__x2B__Good_3_" transform="translate(383.45931989894336,158.33888396048587)">
		<path id="p_571.6481315480336" class="st16" d="M20,163.4c-16.5,0-29.8-13.4-29.8-29.8S3.5,103.7,20,103.7s29.8,13.4,29.8,29.8
			S36.5,163.4,20,163.4z"/>
	</g>
	<g id="NW__x2B__Good_3_" transform="translate(383.4125933802245,39.97757182106231)">
		<path id="p_451.9274850389746" class="st17" d="M20,162.1c-15.8,0-28.5-12.8-28.5-28.5S4.2,105,20,105c0,0,0,0,0,0
			c15.8,0,28.5,12.8,28.5,28.5S35.8,162.1,20,162.1C20,162.1,20,162.1,20,162.1z"/>
	</g>
	<g transform="translate(230.86401739121814,271.41645364384806)">
		<text transform="matrix(1 0 0 1 -2.9248 128.0846)" class="st1 st18">NW + Bad</text>
	</g>
	<g transform="translate(314.63186769520587,271.41645364384806)">
		<text transform="matrix(1 0 0 1 -2.6489 128.0846)" class="st1 st18">PW + Bad</text>
	</g>
	<g transform="translate(274.2992821766365,337.8514149886075)">
		<text transform="matrix(1 0 0 1 -5.9839 128.0846)" class="st1 st18">PW + Good</text>
	</g>
	<g transform="translate(274.2879778442433,205.65891985343313)">
		<text transform="matrix(1 0 0 1 -6.2598 128.0846)" class="st1 st18">NW + Good</text>
	</g>
	<g transform="translate(442.0864568205022,271.1896408999909)">
		<text transform="matrix(1 0 0 1 -2.9248 128.0846)" class="st1 st18">NW + Bad</text>
	</g>
	<g transform="translate(524.3885665889346,271.1896408999909)">
		<text transform="matrix(1 0 0 1 -2.6489 128.0846)" class="st1 st18">PW + Bad</text>
	</g>
	<g transform="translate(486.49896040567484,335.8089203548632)">
		<text transform="matrix(1 0 0 1 -5.9839 128.0846)" class="st1 st18">PW + Good</text>
	</g>
	<g transform="translate(486.4658177700353,207.49476450283163)">
		<text transform="matrix(1 0 0 1 -6.2598 128.0846)" class="st1 st18">NW + Good</text>
	</g>
	<g transform="translate(339.7975803780701,453.912308358887)">
		<text transform="matrix(1 0 0 1 -2.9248 128.0846)" class="st1 st18">NW + Bad</text>
	</g>
	<g transform="translate(422.101756171654,453.912308358887)">
		<text transform="matrix(1 0 0 1 -2.6489 128.0846)" class="st1 st18">PW + Bad</text>
	</g>
	<g transform="translate(383.56087179462975,518.0693449429615)">
		<text transform="matrix(1 0 0 1 -6.2598 128.0846)" class="st1 st18">NW + Good</text>
	</g>
	<g transform="translate(383.56087179462975,389.7552717748125)">
		<text transform="matrix(1 0 0 1 -5.9839 128.0846)" class="st1 st18">PW + Good</text>
	</g>
	<g transform="translate(341.6741591652271,98.37144066720352)">
		<text transform="matrix(1 0 0 1 -2.9248 128.0846)" class="st1 st18">NW + Bad</text>
	</g>
	<g transform="translate(420.140192314203,98.37144066720352)">
		<text transform="matrix(1 0 0 1 -2.6489 128.0846)" class="st1 st18">PW + Bad</text>
	</g>
	<g transform="translate(383.45931989894336,158.33888396048587)">
		<text transform="matrix(1 0 0 1 -5.9839 128.0846)" class="st1 st18">PW + Good</text>
	</g>
	<g transform="translate(383.4125933802245,39.97757182106231)">
		<text transform="matrix(1 0 0 1 -6.2598 128.0846)" class="st1 st18">NW + Good</text>
	</g>
	<g transform="translate(0, 29)">
		<circle class="st0" cx="768.2" cy="560.1" r="29"/>
		<text transform="matrix(1 0 0 1 813.162 565.0744)" class="st1 st18">1.2</text>
	</g>
	<g transform="translate(0, 127.29175845529497)">
		<circle class="st0" cx="873.7" cy="461.8" r="40"/>
		<text transform="matrix(1 0 0 1 918.6663 464.4499)" class="st1 st18">2.4</text>
	</g>
	<text transform="matrix(1 0 0 1 741.713 541.6895)" class="st19 st20">Strength of Association (d’ value)</text>
	<g transform="translate(0,15.5)">
		<g transform="translate(0,0)">
			<rect x="742.5" y="656.2" class="st17" width="1" height="10"/>
			<text transform="matrix(1 0 0 1 742.5322 679.2271)" class="st1 st18">1.2</text>
		</g>
		<g transform="translate(1,0)">
			<rect x="742.5" y="656.2" class="st21" width="1" height="10"/>
		</g>
		<g transform="translate(2,0)">
			<rect x="742.5" y="656.2" class="st22" width="1" height="10"/>
		</g>
		<g transform="translate(3,0)">
			<rect x="742.5" y="656.2" class="st23" width="1" height="10"/>
		</g>
		<g transform="translate(4,0)">
			<rect x="742.5" y="656.2" class="st24" width="1" height="10"/>
		</g>
		<g transform="translate(5,0)">
			<rect x="742.5" y="656.2" class="st25" width="1" height="10"/>
		</g>
		<g transform="translate(6,0)">
			<rect x="742.5" y="656.2" class="st26" width="1" height="10"/>
		</g>
		<g transform="translate(7,0)">
			<rect x="742.5" y="656.2" class="st27" width="1" height="10"/>
		</g>
		<g transform="translate(8,0)">
			<rect x="742.5" y="656.2" class="st28" width="1" height="10"/>
		</g>
		<g transform="translate(9,0)">
			<rect x="742.5" y="656.2" class="st29" width="1" height="10"/>
		</g>
		<g transform="translate(10,0)">
			<rect x="742.5" y="656.2" class="st30" width="1" height="10"/>
		</g>
		<g transform="translate(11,0)">
			<rect x="742.5" y="656.2" class="st31" width="1" height="10"/>
		</g>
		<g transform="translate(12,0)">
			<rect x="742.5" y="656.2" class="st32" width="1" height="10"/>
		</g>
		<g transform="translate(13,0)">
			<rect x="742.5" y="656.2" class="st33" width="1" height="10"/>
		</g>
		<g transform="translate(14,0)">
			<rect x="742.5" y="656.2" class="st34" width="1" height="10"/>
		</g>
		<g transform="translate(15,0)">
			<rect x="742.5" y="656.2" class="st35" width="1" height="10"/>
		</g>
		<g transform="translate(16,0)">
			<rect x="742.5" y="656.2" class="st36" width="1" height="10"/>
		</g>
		<g transform="translate(17,0)">
			<rect x="742.5" y="656.2" class="st37" width="1" height="10"/>
		</g>
		<g transform="translate(18,0)">
			<rect x="742.5" y="656.2" class="st16" width="1" height="10"/>
		</g>
		<g transform="translate(19,0)">
			<rect x="742.5" y="656.2" class="st38" width="1" height="10"/>
		</g>
		<g transform="translate(20,0)">
			<rect x="742.5" y="656.2" class="st39" width="1" height="10"/>
		</g>
		<g transform="translate(21,0)">
			<rect x="742.5" y="656.2" class="st40" width="1" height="10"/>
		</g>
		<g transform="translate(22,0)">
			<rect x="742.5" y="656.2" class="st41" width="1" height="10"/>
		</g>
		<g transform="translate(23,0)">
			<rect x="742.5" y="656.2" class="st42" width="1" height="10"/>
		</g>
		<g transform="translate(24,0)">
			<rect x="742.5" y="656.2" class="st43" width="1" height="10"/>
		</g>
		<g transform="translate(25,0)">
			<rect x="742.5" y="656.2" class="st44" width="1" height="10"/>
		</g>
		<g transform="translate(26,0)">
			<rect x="742.5" y="656.2" class="st45" width="1" height="10"/>
		</g>
		<g transform="translate(27,0)">
			<rect x="742.5" y="656.2" class="st46" width="1" height="10"/>
		</g>
		<g transform="translate(28,0)">
			<rect x="742.5" y="656.2" class="st47" width="1" height="10"/>
		</g>
		<g transform="translate(29,0)">
			<rect x="742.5" y="656.2" class="st48" width="1" height="10"/>
		</g>
		<g transform="translate(30,0)">
			<rect x="742.5" y="656.2" class="st49" width="1" height="10"/>
		</g>
		<g transform="translate(31,0)">
			<rect x="742.5" y="656.2" class="st50" width="1" height="10"/>
		</g>
		<g transform="translate(32,0)">
			<rect x="742.5" y="656.2" class="st51" width="1" height="10"/>
		</g>
		<g transform="translate(33,0)">
			<rect x="742.5" y="656.2" class="st52" width="1" height="10"/>
		</g>
		<g transform="translate(34,0)">
			<rect x="742.5" y="656.2" class="st53" width="1" height="10"/>
		</g>
		<g transform="translate(35,0)">
			<rect x="742.5" y="656.2" class="st54" width="1" height="10"/>
		</g>
		<g transform="translate(36,0)">
			<rect x="742.5" y="656.2" class="st55" width="1" height="10"/>
		</g>
		<g transform="translate(37,0)">
			<rect x="742.5" y="656.2" class="st56" width="1" height="10"/>
		</g>
		<g transform="translate(38,0)">
			<rect x="742.5" y="656.2" class="st57" width="1" height="10"/>
		</g>
		<g transform="translate(39,0)">
			<rect x="742.5" y="656.2" class="st58" width="1" height="10"/>
		</g>
		<g transform="translate(40,0)">
			<rect x="742.5" y="656.2" class="st59" width="1" height="10"/>
		</g>
		<g transform="translate(41,0)">
			<rect x="742.5" y="656.2" class="st60" width="1" height="10"/>
		</g>
		<g transform="translate(42,0)">
			<rect x="742.5" y="656.2" class="st61" width="1" height="10"/>
		</g>
		<g transform="translate(43,0)">
			<rect x="742.5" y="656.2" class="st62" width="1" height="10"/>
		</g>
		<g transform="translate(44,0)">
			<rect x="742.5" y="656.2" class="st63" width="1" height="10"/>
		</g>
		<g transform="translate(45,0)">
			<rect x="742.5" y="656.2" class="st64" width="1" height="10"/>
		</g>
		<g transform="translate(46,0)">
			<rect x="742.5" y="656.2" class="st65" width="1" height="10"/>
		</g>
		<g transform="translate(47,0)">
			<rect x="742.5" y="656.2" class="st66" width="1" height="10"/>
		</g>
		<g transform="translate(48,0)">
			<rect x="742.5" y="656.2" class="st67" width="1" height="10"/>
		</g>
		<g transform="translate(49,0)">
			<rect x="742.5" y="656.2" class="st68" width="1" height="10"/>
		</g>
		<g transform="translate(50,0)">
			<rect x="742.5" y="656.2" class="st69" width="1" height="10"/>
		</g>
		<g transform="translate(51,0)">
			<rect x="742.5" y="656.2" class="st70" width="1" height="10"/>
		</g>
		<g transform="translate(52,0)">
			<rect x="742.5" y="656.2" class="st71" width="1" height="10"/>
		</g>
		<g transform="translate(53,0)">
			<rect x="742.5" y="656.2" class="st72" width="1" height="10"/>
		</g>
		<g transform="translate(54,0)">
			<rect x="742.5" y="656.2" class="st73" width="1" height="10"/>
		</g>
		<g transform="translate(55,0)">
			<rect x="742.5" y="656.2" class="st74" width="1" height="10"/>
		</g>
		<g transform="translate(56,0)">
			<rect x="742.5" y="656.2" class="st75" width="1" height="10"/>
		</g>
		<g transform="translate(57,0)">
			<rect x="742.5" y="656.2" class="st76" width="1" height="10"/>
		</g>
		<g transform="translate(58,0)">
			<rect x="742.5" y="656.2" class="st77" width="1" height="10"/>
		</g>
		<g transform="translate(59,0)">
			<rect x="742.5" y="656.2" class="st78" width="1" height="10"/>
		</g>
		<g transform="translate(60,0)">
			<rect x="742.5" y="656.2" class="st79" width="1" height="10"/>
		</g>
		<g transform="translate(61,0)">
			<rect x="742.5" y="656.2" class="st80" width="1" height="10"/>
		</g>
		<g transform="translate(62,0)">
			<rect x="742.5" y="656.2" class="st81" width="1" height="10"/>
		</g>
		<g transform="translate(63,0)">
			<rect x="742.5" y="656.2" class="st82" width="1" height="10"/>
		</g>
		<g transform="translate(64,0)">
			<rect x="742.5" y="656.2" class="st83" width="1" height="10"/>
		</g>
		<g transform="translate(65,0)">
			<rect x="742.5" y="656.2" class="st84" width="1" height="10"/>
		</g>
		<g transform="translate(66,0)">
			<rect x="742.5" y="656.2" class="st85" width="1" height="10"/>
		</g>
		<g transform="translate(67,0)">
			<rect x="742.5" y="656.2" class="st86" width="1" height="10"/>
		</g>
		<g transform="translate(68,0)">
			<rect x="742.5" y="656.2" class="st87" width="1" height="10"/>
		</g>
		<g transform="translate(69,0)">
			<rect x="742.5" y="656.2" class="st88" width="1" height="10"/>
		</g>
		<g transform="translate(70,0)">
			<rect x="742.5" y="656.2" class="st89" width="1" height="10"/>
		</g>
		<g transform="translate(71,0)">
			<rect x="742.5" y="656.2" class="st90" width="1" height="10"/>
		</g>
		<g transform="translate(72,0)">
			<rect x="742.5" y="656.2" class="st91" width="1" height="10"/>
		</g>
		<g transform="translate(73,0)">
			<rect x="742.5" y="656.2" class="st92" width="1" height="10"/>
		</g>
		<g transform="translate(74,0)">
			<rect x="742.5" y="656.2" class="st93" width="1" height="10"/>
		</g>
		<g transform="translate(75,0)">
			<rect x="742.5" y="656.2" class="st94" width="1" height="10"/>
		</g>
		<g transform="translate(76,0)">
			<rect x="742.5" y="656.2" class="st95" width="1" height="10"/>
		</g>
		<g transform="translate(77,0)">
			<rect x="742.5" y="656.2" class="st96" width="1" height="10"/>
		</g>
		<g transform="translate(78,0)">
			<rect x="742.5" y="656.2" class="st97" width="1" height="10"/>
		</g>
		<g transform="translate(79,0)">
			<rect x="742.5" y="656.2" class="st98" width="1" height="10"/>
		</g>
		<g transform="translate(80,0)">
			<rect x="742.5" y="656.2" class="st99" width="1" height="10"/>
		</g>
		<g transform="translate(81,0)">
			<rect x="742.5" y="656.2" class="st100" width="1" height="10"/>
		</g>
		<g transform="translate(82,0)">
			<rect x="742.5" y="656.2" class="st101" width="1" height="10"/>
		</g>
		<g transform="translate(83,0)">
			<rect x="742.5" y="656.2" class="st102" width="1" height="10"/>
		</g>
		<g transform="translate(84,0)">
			<rect x="742.5" y="656.2" class="st103" width="1" height="10"/>
		</g>
		<g transform="translate(85,0)">
			<rect x="742.5" y="656.2" class="st104" width="1" height="10"/>
		</g>
		<g transform="translate(86,0)">
			<rect x="742.5" y="656.2" class="st105" width="1" height="10"/>
		</g>
		<g transform="translate(87,0)">
			<rect x="742.5" y="656.2" class="st106" width="1" height="10"/>
		</g>
		<g transform="translate(88,0)">
			<rect x="742.5" y="656.2" class="st107" width="1" height="10"/>
		</g>
		<g transform="translate(89,0)">
			<rect x="742.5" y="656.2" class="st108" width="1" height="10"/>
		</g>
		<g transform="translate(90,0)">
			<rect x="742.5" y="656.2" class="st109" width="1" height="10"/>
		</g>
		<g transform="translate(91,0)">
			<rect x="742.5" y="656.2" class="st110" width="1" height="10"/>
		</g>
		<g transform="translate(92,0)">
			<rect x="742.5" y="656.2" class="st111" width="1" height="10"/>
		</g>
		<g transform="translate(93,0)">
			<rect x="742.5" y="656.2" class="st112" width="1" height="10"/>
		</g>
		<g transform="translate(94,0)">
			<rect x="742.5" y="656.2" class="st113" width="1" height="10"/>
		</g>
		<g transform="translate(95,0)">
			<rect x="742.5" y="656.2" class="st114" width="1" height="10"/>
		</g>
		<g transform="translate(96,0)">
			<rect x="742.5" y="656.2" class="st115" width="1" height="10"/>
		</g>
		<g transform="translate(97,0)">
			<rect x="742.5" y="656.2" class="st116" width="1" height="10"/>
		</g>
		<g transform="translate(98,0)">
			<rect x="742.5" y="656.2" class="st117" width="1" height="10"/>
		</g>
		<g transform="translate(99,0)">
			<rect x="742.5" y="656.2" class="st118" width="1" height="10"/>
		</g>
		<g transform="translate(100,0)">
			<rect x="742.5" y="656.2" class="st15" width="1" height="10"/>
		</g>
		<g transform="translate(101,0)">
			<rect x="742.5" y="656.2" class="st119" width="1" height="10"/>
		</g>
		<g transform="translate(102,0)">
			<rect x="742.5" y="656.2" class="st120" width="1" height="10"/>
		</g>
		<g transform="translate(103,0)">
			<rect x="742.5" y="656.2" class="st121" width="1" height="10"/>
		</g>
		<g transform="translate(104,0)">
			<rect x="742.5" y="656.2" class="st122" width="1" height="10"/>
		</g>
		<g transform="translate(105,0)">
			<rect x="742.5" y="656.2" class="st123" width="1" height="10"/>
		</g>
		<g transform="translate(106,0)">
			<rect x="742.5" y="656.2" class="st124" width="1" height="10"/>
		</g>
		<g transform="translate(107,0)">
			<rect x="742.5" y="656.2" class="st125" width="1" height="10"/>
		</g>
		<g transform="translate(108,0)">
			<rect x="742.5" y="656.2" class="st126" width="1" height="10"/>
		</g>
		<g transform="translate(109,0)">
			<rect x="742.5" y="656.2" class="st127" width="1" height="10"/>
		</g>
		<g transform="translate(110,0)">
			<rect x="742.5" y="656.2" class="st128" width="1" height="10"/>
		</g>
		<g transform="translate(111,0)">
			<rect x="742.5" y="656.2" class="st129" width="1" height="10"/>
		</g>
		<g transform="translate(112,0)">
			<rect x="742.5" y="656.2" class="st130" width="1" height="10"/>
		</g>
		<g transform="translate(113,0)">
			<rect x="742.5" y="656.2" class="st131" width="1" height="10"/>
		</g>
		<g transform="translate(114,0)">
			<rect x="742.5" y="656.2" class="st132" width="1" height="10"/>
		</g>
		<g transform="translate(115,0)">
			<rect x="742.5" y="656.2" class="st133" width="1" height="10"/>
		</g>
		<g transform="translate(116,0)">
			<rect x="742.5" y="656.2" class="st134" width="1" height="10"/>
		</g>
		<g transform="translate(117,0)">
			<rect x="742.5" y="656.2" class="st135" width="1" height="10"/>
		</g>
		<g transform="translate(118,0)">
			<rect x="742.5" y="656.2" class="st136" width="1" height="10"/>
		</g>
		<g transform="translate(119,0)">
			<rect x="742.5" y="656.2" class="st137" width="1" height="10"/>
		</g>
		<g transform="translate(120,0)">
			<rect x="742.5" y="656.2" class="st138" width="1" height="10"/>
		</g>
		<g transform="translate(121,0)">
			<rect x="742.5" y="656.2" class="st139" width="1" height="10"/>
		</g>
		<g transform="translate(122,0)">
			<rect x="742.5" y="656.2" class="st140" width="1" height="10"/>
		</g>
		<g transform="translate(123,0)">
			<rect x="742.5" y="656.2" class="st141" width="1" height="10"/>
		</g>
		<g transform="translate(124,0)">
			<rect x="742.5" y="656.2" class="st142" width="1" height="10"/>
		</g>
		<g transform="translate(125,0)">
			<rect x="742.5" y="656.2" class="st143" width="1" height="10"/>
		</g>
		<g transform="translate(126,0)">
			<rect x="742.5" y="656.2" class="st8" width="1" height="10"/>
		</g>
		<g transform="translate(127,0)">
			<rect x="742.5" y="656.2" class="st144" width="1" height="10"/>
		</g>
		<g transform="translate(128,0)">
			<rect x="742.5" y="656.2" class="st145" width="1" height="10"/>
		</g>
		<g transform="translate(129,0)">
			<rect x="742.5" y="656.2" class="st146" width="1" height="10"/>
		</g>
		<g transform="translate(130,0)">
			<rect x="742.5" y="656.2" class="st147" width="1" height="10"/>
		</g>
		<g transform="translate(131,0)">
			<rect x="742.5" y="656.2" class="st148" width="1" height="10"/>
		</g>
		<g transform="translate(132,0)">
			<rect x="742.5" y="656.2" class="st149" width="1" height="10"/>
		</g>
		<g transform="translate(133,0)">
			<rect x="742.5" y="656.2" class="st150" width="1" height="10"/>
		</g>
		<g transform="translate(134,0)">
			<rect x="742.5" y="656.2" class="st151" width="1" height="10"/>
		</g>
		<g transform="translate(135,0)">
			<rect x="742.5" y="656.2" class="st152" width="1" height="10"/>
		</g>
		<g transform="translate(136,0)">
			<rect x="742.5" y="656.2" class="st153" width="1" height="10"/>
		</g>
		<g transform="translate(137,0)">
			<rect x="742.5" y="656.2" class="st154" width="1" height="10"/>
		</g>
		<g transform="translate(138,0)">
			<rect x="742.5" y="656.2" class="st155" width="1" height="10"/>
		</g>
		<g transform="translate(139,0)">
			<rect x="742.5" y="656.2" class="st156" width="1" height="10"/>
		</g>
		<g transform="translate(140,0)">
			<rect x="742.5" y="656.2" class="st157" width="1" height="10"/>
		</g>
		<g transform="translate(141,0)">
			<rect x="742.5" y="656.2" class="st158" width="1" height="10"/>
		</g>
		<g transform="translate(142,0)">
			<rect x="742.5" y="656.2" class="st159" width="1" height="10"/>
		</g>
		<g transform="translate(143,0)">
			<rect x="742.5" y="656.2" class="st160" width="1" height="10"/>
		</g>
		<g transform="translate(144,0)">
			<rect x="742.5" y="656.2" class="st161" width="1" height="10"/>
		</g>
		<g transform="translate(145,0)">
			<rect x="742.5" y="656.2" class="st162" width="1" height="10"/>
		</g>
		<g transform="translate(146,0)">
			<rect x="742.5" y="656.2" class="st163" width="1" height="10"/>
		</g>
		<g transform="translate(147,0)">
			<rect x="742.5" y="656.2" class="st14" width="1" height="10"/>
		</g>
		<g transform="translate(148,0)">
			<rect x="742.5" y="656.2" class="st164" width="1" height="10"/>
		</g>
		<g transform="translate(149,0)">
			<rect x="742.5" y="656.2" class="st165" width="1" height="10"/>
		</g>
		<g transform="translate(150,0)">
			<rect x="742.5" y="656.2" class="st166" width="1" height="10"/>
		</g>
		<g transform="translate(151,0)">
			<rect x="742.5" y="656.2" class="st167" width="1" height="10"/>
		</g>
		<g transform="translate(152,0)">
			<rect x="742.5" y="656.2" class="st168" width="1" height="10"/>
		</g>
		<g transform="translate(153,0)">
			<rect x="742.5" y="656.2" class="st169" width="1" height="10"/>
		</g>
		<g transform="translate(154,0)">
			<rect x="742.5" y="656.2" class="st170" width="1" height="10"/>
		</g>
		<g transform="translate(155,0)">
			<rect x="742.5" y="656.2" class="st4" width="1" height="10"/>
		</g>
		<g transform="translate(156,0)">
			<rect x="742.5" y="656.2" class="st171" width="1" height="10"/>
		</g>
		<g transform="translate(157,0)">
			<rect x="742.5" y="656.2" class="st172" width="1" height="10"/>
		</g>
		<g transform="translate(158,0)">
			<rect x="742.5" y="656.2" class="st173" width="1" height="10"/>
		</g>
		<g transform="translate(159,0)">
			<rect x="742.5" y="656.2" class="st174" width="1" height="10"/>
		</g>
		<g transform="translate(160,0)">
			<rect x="742.5" y="656.2" class="st175" width="1" height="10"/>
		</g>
		<g transform="translate(161,0)">
			<rect x="742.5" y="656.2" class="st176" width="1" height="10"/>
		</g>
		<g transform="translate(162,0)">
			<rect x="742.5" y="656.2" class="st177" width="1" height="10"/>
		</g>
		<g transform="translate(163,0)">
			<rect x="742.5" y="656.2" class="st178" width="1" height="10"/>
		</g>
		<g transform="translate(164,0)">
			<rect x="742.5" y="656.2" class="st179" width="1" height="10"/>
		</g>
		<g transform="translate(165,0)">
			<rect x="742.5" y="656.2" class="st180" width="1" height="10"/>
		</g>
		<g transform="translate(166,0)">
			<rect x="742.5" y="656.2" class="st181" width="1" height="10"/>
		</g>
		<g transform="translate(167,0)">
			<rect x="742.5" y="656.2" class="st182" width="1" height="10"/>
		</g>
		<g transform="translate(168,0)">
			<rect x="742.5" y="656.2" class="st183" width="1" height="10"/>
		</g>
		<g transform="translate(169,0)">
			<rect x="742.5" y="656.2" class="st184" width="1" height="10"/>
		</g>
		<g transform="translate(170,0)">
			<rect x="742.5" y="656.2" class="st185" width="1" height="10"/>
		</g>
		<g transform="translate(171,0)">
			<rect x="742.5" y="656.2" class="st186" width="1" height="10"/>
		</g>
		<g transform="translate(172,0)">
			<rect x="742.5" y="656.2" class="st187" width="1" height="10"/>
		</g>
		<g transform="translate(173,0)">
			<rect x="742.5" y="656.2" class="st188" width="1" height="10"/>
		</g>
		<g transform="translate(174,0)">
			<rect x="742.5" y="656.2" class="st189" width="1" height="10"/>
		</g>
		<g transform="translate(175,0)">
			<rect x="742.5" y="656.2" class="st190" width="1" height="10"/>
		</g>
		<g transform="translate(176,0)">
			<rect x="742.5" y="656.2" class="st191" width="1" height="10"/>
		</g>
		<g transform="translate(177,0)">
			<rect x="742.5" y="656.2" class="st192" width="1" height="10"/>
		</g>
		<g transform="translate(178,0)">
			<rect x="742.5" y="656.2" class="st193" width="1" height="10"/>
		</g>
		<g transform="translate(179,0)">
			<rect x="742.5" y="656.2" class="st194" width="1" height="10"/>
		</g>
		<g transform="translate(180,0)">
			<rect x="742.5" y="656.2" class="st195" width="1" height="10"/>
		</g>
		<g transform="translate(181,0)">
			<rect x="742.5" y="656.2" class="st196" width="1" height="10"/>
		</g>
		<g transform="translate(182,0)">
			<rect x="742.5" y="656.2" class="st197" width="1" height="10"/>
		</g>
		<g transform="translate(183,0)">
			<rect x="742.5" y="656.2" class="st198" width="1" height="10"/>
		</g>
		<g transform="translate(184,0)">
			<rect x="742.5" y="656.2" class="st199" width="1" height="10"/>
		</g>
		<g transform="translate(185,0)">
			<rect x="742.5" y="656.2" class="st200" width="1" height="10"/>
		</g>
		<g transform="translate(186,0)">
			<rect x="742.5" y="656.2" class="st201" width="1" height="10"/>
		</g>
		<g transform="translate(187,0)">
			<rect x="742.5" y="656.2" class="st202" width="1" height="10"/>
		</g>
		<g transform="translate(188,0)">
			<rect x="742.5" y="656.2" class="st203" width="1" height="10"/>
		</g>
		<g transform="translate(189,0)">
			<rect x="742.5" y="656.2" class="st7" width="1" height="10"/>
			<text transform="matrix(1 0 0 1 728.6308 679.2271)" class="st1 st18">2.4</text>
		</g>
	</g>
	<text transform="matrix(1 0 0 1 742.5322 656.2271)" class="st19 st20">Strength of Association (d’ value)</text>
	<text transform="matrix(1 0 0 1 26.0999 56.774)"><tspan x="0" y="0" class="st204 st205">Impact of Word Choice on Explicit &amp; Implicit Associations:</tspan><tspan x="48.5" y="33.6" class="st204 st205">Strength of Positive or Negative Word Associations  </tspan></text>
	<text transform="matrix(1 0 0 1 458.505 302.1595)" class="st1 st2">Alcoholic -- AUD</text>
	<text transform="matrix(1 0 0 1 261.3239 299.4578)" class="st1 st2">OA -- OUD</text>
</g>
<g id="ai2html-settings">
	<rect x="-450" style="fill:none;" width="400" height="418"/>
	<text id="ai2html-settings_1_" transform="matrix(1 0 0 1 -450 10.65)"><tspan x="0" y="0" style="font-family:'MyriadPro-Regular'; font-size:15px;">ai2html-settings</tspan><tspan x="0" y="19" style="font-family:'MyriadPro-Regular'; font-size:15px;">settings_version: 0.102.0</tspan><tspan x="0" y="38" style="font-family:'MyriadPro-Regular'; font-size:15px;">image_format: auto</tspan><tspan x="0" y="57" style="font-family:'MyriadPro-Regular'; font-size:15px;">responsiveness: dynamic</tspan><tspan x="0" y="76" style="font-family:'MyriadPro-Regular'; font-size:15px;">output: one-file</tspan><tspan x="0" y="95" style="font-family:'MyriadPro-Regular'; font-size:15px;">html_output_path: /ai2html-output/</tspan><tspan x="0" y="114" style="font-family:'MyriadPro-Regular'; font-size:15px;">html_output_extension: .html</tspan><tspan x="0" y="133" style="font-family:'MyriadPro-Regular'; font-size:15px;">image_output_path: </tspan><tspan x="0" y="152" style="font-family:'MyriadPro-Regular'; font-size:15px;">local_preview_template: </tspan><tspan x="0" y="171" style="font-family:'MyriadPro-Regular'; font-size:15px;">png_number_of_colors: 128</tspan><tspan x="0" y="190" style="font-family:'MyriadPro-Regular'; font-size:15px;">jpg_quality: 60</tspan><tspan x="0" y="209" style="font-family:'MyriadPro-Regular'; font-size:15px;">headline: </tspan><tspan x="0" y="228" style="font-family:'MyriadPro-Regular'; font-size:15px;">leadin: </tspan><tspan x="0" y="247" style="font-family:'MyriadPro-Regular'; font-size:15px;">notes: </tspan><tspan x="0" y="266" style="font-family:'MyriadPro-Regular'; font-size:15px;">sources: </tspan><tspan x="0" y="285" style="font-family:'MyriadPro-Regular'; font-size:15px;">credit: </tspan></text>
</g>
</svg>
