<svg xmlns="http://www.w3.org/2000/svg" width="1000" height="900"><rect width="1000" height="900" x="0" y="0" fill="#FFFFFF" id="backgorund"/><g transform="translate(400,450)" id="viz"><path fill="rgb(158, 1, 66)" display="" d="M0.9999956169244518,-387.9987113493628A388,388,0,0,1,350.6459529255156,-166.10663953303347L176.0131777412508,-83.9306932023492A195,195,0,0,0,0.9999956169244657,-194.99743590305522Z"><title>Alcohol</title></path><path fill="rgb(94, 79, 162)" display="" d="M351.4975077762001,-164.29699335995207A388,388,0,1,1,-208.7444301830589,-327.0623226046529L-105.32917533380542,-164.10595608782904A195,195,0,1,0,176.8647325919353,-82.12104702926781Z"><title>Nicotine / Smoking</title></path><path fill="rgb(190, 229, 160)" display="" d="M-207.05578173356122,-328.13397149747215A388,388,0,0,1,-49.621243464999566,-384.8138929365561L-25.43176953127893,-193.3344901938294A195,195,0,0,0,-103.64052688430756,-165.1776049806484Z"><title>Heroin / Cocaine / Meth</title></path><path fill="rgb(253, 190, 112)" display="" d="M-47.63702275939821,-385.0645583049946A388,388,0,0,1,-0.9999956169244133,-387.9987113493628L-0.9999956169244896,-194.99743590305522A195,195,0,0,0,-23.447548825677345,-193.58515556226791Z"><title>Cannabis</title></path></g><g id="labels" transform="translate(400,450)" text-anchor="middle"><text transform="rotate(90) translate(97.5,0) rotate(180)"><tspan x="0" y="4" style="font-family: Arial, sans-serif; font-size: 10px; fill: black; font-weight: bold;"/></text><text transform="rotate(-57.599999999999994) translate(292.5,0) rotate(0)"><tspan x="0" y="4" style="font-family: Arial, sans-serif; font-size: 10px; fill: black; font-weight: bold;">Alcohol</tspan></text><text transform="rotate(106.19999999999999) translate(292.5,0) rotate(180)"><tspan x="0" y="4" style="font-family: Arial, sans-serif; font-size: 10px; fill: black; font-weight: bold;">Nicotine / Smoking</tspan></text><text transform="rotate(250.2) translate(292.5,0) rotate(180)"><tspan x="0" y="4" style="font-family: Arial, sans-serif; font-size: 10px; fill: black; font-weight: bold;">Heroin / Cocaine / Meth</tspan></text><text transform="rotate(266.40000000000003) translate(292.5,0) rotate(180)"><tspan x="0" y="4" style="font-family: Arial, sans-serif; font-size: 10px; fill: black; font-weight: bold;">Cannabis</tspan></text></g><g id="legend" transform="translate(800,10)"><g transform="translate(5,0)"><g class="legendColor" transform="translate(0,0)"><g class="legendCells" transform="translate(0,15.5)"><g class="cell" transform="translate(0, 0)"><rect class="swatch" height="15" width="15" style="fill: rgb(158, 1, 66);"/><text class="label" transform="translate( 20, 12.5)" font-family="&quot;Arial&quot;, sans-serif" font-size="10px"><tspan x="0" dy="0em">Alcohol</tspan></text></g><g class="cell" transform="translate(0, 20.5)"><rect class="swatch" height="15" width="15" style="fill: rgb(253, 190, 112);"/><text class="label" transform="translate( 20, 12.5)" font-family="&quot;Arial&quot;, sans-serif" font-size="10px"><tspan x="0" dy="0em">Cannabis</tspan></text></g><g class="cell" transform="translate(0, 41)"><rect class="swatch" height="15" width="15" style="fill: rgb(190, 229, 160);"/><text class="label" transform="translate( 20, 12.5)" font-family="&quot;Arial&quot;, sans-serif" font-size="10px"><tspan x="0" dy="0em">Heroin / Cocaine / Meth</tspan></text></g><g class="cell" transform="translate(0, 61.5)"><rect class="swatch" height="15" width="15" style="fill: rgb(94, 79, 162);"/><text class="label" transform="translate( 20, 12.5)" font-family="&quot;Arial&quot;, sans-serif" font-size="10px"><tspan x="0" dy="0em">Nicotine / Smoking</tspan></text></g></g><text class="legendTitle" font-family="&quot;Arial&quot;, sans-serif" font-size="12px" font-weight="bold"><tspan x="0" dy="0em">Substance</tspan></text></g></g></g></svg>